<mxfile host="app.diagrams.net" modified="2023-04-10T13:59:22.891Z" agent="Mozilla/5.0 (Windows NT 10.0; Win64; x64) AppleWebKit/537.36 (KHTML, like Gecko) Chrome/112.0.0.0 Safari/537.36" etag="BFdrNYAOl9f5DN6SeimL" version="21.1.5" type="device">
  <diagram name="Page-1" id="cg_2lf2457jiWw39Sg79">
    <mxGraphModel dx="1195" dy="637" grid="1" gridSize="10" guides="1" tooltips="1" connect="1" arrows="1" fold="1" page="1" pageScale="1" pageWidth="850" pageHeight="1100" math="0" shadow="0">
      <root>
        <mxCell id="0" />
        <mxCell id="1" parent="0" />
        <mxCell id="qcoBS1INlQU58nQ2aaVg-4" value="" style="ellipse;whiteSpace=wrap;html=1;" vertex="1" parent="1">
          <mxGeometry x="390" y="233" width="160" height="67" as="geometry" />
        </mxCell>
        <mxCell id="qcoBS1INlQU58nQ2aaVg-3" value="" style="ellipse;whiteSpace=wrap;html=1;" vertex="1" parent="1">
          <mxGeometry x="245" y="226.25" width="112" height="42.5" as="geometry" />
        </mxCell>
        <mxCell id="4AkLC9VZN4L1tE0bMo88-15" value="" style="ellipse;whiteSpace=wrap;html=1;" parent="1" vertex="1">
          <mxGeometry x="145" y="370" width="145" height="50" as="geometry" />
        </mxCell>
        <mxCell id="4AkLC9VZN4L1tE0bMo88-14" value="" style="ellipse;whiteSpace=wrap;html=1;" parent="1" vertex="1">
          <mxGeometry x="410" y="330" width="120" height="50" as="geometry" />
        </mxCell>
        <mxCell id="4AkLC9VZN4L1tE0bMo88-13" value="" style="ellipse;whiteSpace=wrap;html=1;" parent="1" vertex="1">
          <mxGeometry x="215" y="300" width="120" height="45" as="geometry" />
        </mxCell>
        <mxCell id="4AkLC9VZN4L1tE0bMo88-12" value="" style="ellipse;whiteSpace=wrap;html=1;" parent="1" vertex="1">
          <mxGeometry x="377.5" y="120" width="120" height="50" as="geometry" />
        </mxCell>
        <mxCell id="4AkLC9VZN4L1tE0bMo88-11" value="" style="ellipse;whiteSpace=wrap;html=1;" parent="1" vertex="1">
          <mxGeometry x="207.5" y="150" width="120" height="50" as="geometry" />
        </mxCell>
        <mxCell id="4AkLC9VZN4L1tE0bMo88-10" value="" style="ellipse;whiteSpace=wrap;html=1;" parent="1" vertex="1">
          <mxGeometry x="192.5" y="90" width="135" height="50" as="geometry" />
        </mxCell>
        <mxCell id="4AkLC9VZN4L1tE0bMo88-9" value="" style="ellipse;whiteSpace=wrap;html=1;" parent="1" vertex="1">
          <mxGeometry x="120" y="30" width="130" height="50" as="geometry" />
        </mxCell>
        <mxCell id="4AkLC9VZN4L1tE0bMo88-1" value="Користувач" style="shape=umlActor;verticalLabelPosition=bottom;verticalAlign=top;html=1;outlineConnect=0;" parent="1" vertex="1">
          <mxGeometry x="100" y="240" width="30" height="60" as="geometry" />
        </mxCell>
        <mxCell id="4AkLC9VZN4L1tE0bMo88-2" value="Пройти автентифікацію" style="text;html=1;strokeColor=none;fillColor=none;align=center;verticalAlign=middle;whiteSpace=wrap;rounded=0;" parent="1" vertex="1">
          <mxGeometry x="130" y="40" width="100" height="30" as="geometry" />
        </mxCell>
        <mxCell id="4AkLC9VZN4L1tE0bMo88-3" value="Надіслати чату GPT запит" style="text;html=1;strokeColor=none;fillColor=none;align=center;verticalAlign=middle;whiteSpace=wrap;rounded=0;" parent="1" vertex="1">
          <mxGeometry x="215" y="100" width="90" height="30" as="geometry" />
        </mxCell>
        <mxCell id="4AkLC9VZN4L1tE0bMo88-4" value="Відкрити діалог з чатом з файлу" style="text;html=1;strokeColor=none;fillColor=none;align=center;verticalAlign=middle;whiteSpace=wrap;rounded=0;" parent="1" vertex="1">
          <mxGeometry x="207.5" y="160" width="120" height="30" as="geometry" />
        </mxCell>
        <mxCell id="4AkLC9VZN4L1tE0bMo88-5" value="Зберегти діалог з чатом у файл" style="text;html=1;strokeColor=none;fillColor=none;align=center;verticalAlign=middle;whiteSpace=wrap;rounded=0;" parent="1" vertex="1">
          <mxGeometry x="370" y="130" width="127.5" height="30" as="geometry" />
        </mxCell>
        <mxCell id="4AkLC9VZN4L1tE0bMo88-6" value="Редагувати сценарії швидкого набору" style="text;html=1;strokeColor=none;fillColor=none;align=center;verticalAlign=middle;whiteSpace=wrap;rounded=0;" parent="1" vertex="1">
          <mxGeometry x="160" y="380" width="120" height="30" as="geometry" />
        </mxCell>
        <mxCell id="4AkLC9VZN4L1tE0bMo88-7" value="Надіслати на пошту лист" style="text;html=1;strokeColor=none;fillColor=none;align=center;verticalAlign=middle;whiteSpace=wrap;rounded=0;" parent="1" vertex="1">
          <mxGeometry x="230" y="310" width="90" height="30" as="geometry" />
        </mxCell>
        <mxCell id="4AkLC9VZN4L1tE0bMo88-8" value="Додати файл з діалогом у лист" style="text;html=1;strokeColor=none;fillColor=none;align=center;verticalAlign=middle;whiteSpace=wrap;rounded=0;" parent="1" vertex="1">
          <mxGeometry x="425" y="340" width="100" height="30" as="geometry" />
        </mxCell>
        <mxCell id="4AkLC9VZN4L1tE0bMo88-17" value="" style="endArrow=classic;html=1;rounded=0;entryX=0.103;entryY=0.86;entryDx=0;entryDy=0;entryPerimeter=0;" parent="1" target="4AkLC9VZN4L1tE0bMo88-9" edge="1">
          <mxGeometry width="50" height="50" relative="1" as="geometry">
            <mxPoint x="120" y="230" as="sourcePoint" />
            <mxPoint x="170" y="180" as="targetPoint" />
          </mxGeometry>
        </mxCell>
        <mxCell id="4AkLC9VZN4L1tE0bMo88-18" value="" style="endArrow=classic;html=1;rounded=0;entryX=0;entryY=0.5;entryDx=0;entryDy=0;" parent="1" target="4AkLC9VZN4L1tE0bMo88-10" edge="1">
          <mxGeometry width="50" height="50" relative="1" as="geometry">
            <mxPoint x="130" y="240" as="sourcePoint" />
            <mxPoint x="180" y="190" as="targetPoint" />
          </mxGeometry>
        </mxCell>
        <mxCell id="4AkLC9VZN4L1tE0bMo88-19" value="" style="endArrow=classic;html=1;rounded=0;entryX=0;entryY=0.5;entryDx=0;entryDy=0;" parent="1" target="4AkLC9VZN4L1tE0bMo88-4" edge="1">
          <mxGeometry width="50" height="50" relative="1" as="geometry">
            <mxPoint x="130" y="250" as="sourcePoint" />
            <mxPoint x="180" y="200" as="targetPoint" />
          </mxGeometry>
        </mxCell>
        <mxCell id="4AkLC9VZN4L1tE0bMo88-20" value="" style="endArrow=classic;html=1;rounded=0;" parent="1" target="4AkLC9VZN4L1tE0bMo88-5" edge="1">
          <mxGeometry width="50" height="50" relative="1" as="geometry">
            <mxPoint x="130" y="270" as="sourcePoint" />
            <mxPoint x="180" y="220" as="targetPoint" />
          </mxGeometry>
        </mxCell>
        <mxCell id="4AkLC9VZN4L1tE0bMo88-21" value="" style="endArrow=classic;html=1;rounded=0;entryX=0.004;entryY=0.36;entryDx=0;entryDy=0;entryPerimeter=0;" parent="1" target="4AkLC9VZN4L1tE0bMo88-13" edge="1">
          <mxGeometry width="50" height="50" relative="1" as="geometry">
            <mxPoint x="130" y="280" as="sourcePoint" />
            <mxPoint x="180" y="230" as="targetPoint" />
          </mxGeometry>
        </mxCell>
        <mxCell id="4AkLC9VZN4L1tE0bMo88-22" value="" style="endArrow=classic;html=1;rounded=0;entryX=0.367;entryY=-0.037;entryDx=0;entryDy=0;entryPerimeter=0;" parent="1" target="4AkLC9VZN4L1tE0bMo88-15" edge="1">
          <mxGeometry width="50" height="50" relative="1" as="geometry">
            <mxPoint x="130" y="290" as="sourcePoint" />
            <mxPoint x="180" y="240" as="targetPoint" />
          </mxGeometry>
        </mxCell>
        <mxCell id="4AkLC9VZN4L1tE0bMo88-23" value="" style="endArrow=classic;html=1;rounded=0;entryX=1;entryY=0.611;entryDx=0;entryDy=0;entryPerimeter=0;dashed=1;dashPattern=8 8;" parent="1" target="4AkLC9VZN4L1tE0bMo88-13" edge="1">
          <mxGeometry width="50" height="50" relative="1" as="geometry">
            <mxPoint x="410" y="340" as="sourcePoint" />
            <mxPoint x="370" y="290" as="targetPoint" />
          </mxGeometry>
        </mxCell>
        <mxCell id="4AkLC9VZN4L1tE0bMo88-24" value="&quot;extend&quot;" style="text;html=1;strokeColor=none;fillColor=none;align=center;verticalAlign=middle;whiteSpace=wrap;rounded=0;" parent="1" vertex="1">
          <mxGeometry x="350" y="310" width="60" height="30" as="geometry" />
        </mxCell>
        <mxCell id="qcoBS1INlQU58nQ2aaVg-1" value="Надіслати лист із одразу прикріпленим файлом діалогу" style="text;html=1;strokeColor=none;fillColor=none;align=center;verticalAlign=middle;whiteSpace=wrap;rounded=0;" vertex="1" parent="1">
          <mxGeometry x="390" y="245" width="160" height="50" as="geometry" />
        </mxCell>
        <mxCell id="qcoBS1INlQU58nQ2aaVg-2" value="Змінити мову інтерфейсу" style="text;html=1;strokeColor=none;fillColor=none;align=center;verticalAlign=middle;whiteSpace=wrap;rounded=0;" vertex="1" parent="1">
          <mxGeometry x="268" y="232.5" width="82" height="30" as="geometry" />
        </mxCell>
        <mxCell id="qcoBS1INlQU58nQ2aaVg-5" value="" style="endArrow=classic;html=1;rounded=0;entryX=0;entryY=0.5;entryDx=0;entryDy=0;" edge="1" parent="1" target="qcoBS1INlQU58nQ2aaVg-3">
          <mxGeometry width="50" height="50" relative="1" as="geometry">
            <mxPoint x="130" y="280" as="sourcePoint" />
            <mxPoint x="180" y="230" as="targetPoint" />
          </mxGeometry>
        </mxCell>
        <mxCell id="qcoBS1INlQU58nQ2aaVg-7" value="" style="endArrow=classic;html=1;rounded=0;" edge="1" parent="1" target="qcoBS1INlQU58nQ2aaVg-1">
          <mxGeometry width="50" height="50" relative="1" as="geometry">
            <mxPoint x="130" y="280" as="sourcePoint" />
            <mxPoint x="180" y="230" as="targetPoint" />
          </mxGeometry>
        </mxCell>
      </root>
    </mxGraphModel>
  </diagram>
</mxfile>
